<svg xmlns="http://www.w3.org/2000/svg" viewBox="0 0 800 800"><defs><style>.cls-1{fill:#f2f1f5;}.cls-2{fill:#4bad36;}.cls-3{fill:#ed3d53;}.cls-4{fill:#042b54;}.cls-5{fill:#ffbd52;}.cls-6{fill:#6a5cef;}.cls-7{fill:#e0dee7;}.cls-8{fill:#cfcbd5;}.cls-10,.cls-9{fill:none;stroke-linecap:round;}.cls-9{stroke:#f29e16;stroke-linejoin:round;stroke-width:6px;}.cls-10{stroke:#042b54;stroke-miterlimit:10;stroke-width:7.4px;}.cls-11{fill:#fff;}</style></defs><g id="background"><rect class="cls-1" x="650" y="434.11" width="100" height="40" rx="8.94" transform="translate(1400 908.22) rotate(-180)"/><rect class="cls-1" x="600" y="374.11" width="100" height="40" rx="8.94" transform="translate(1300 788.22) rotate(-180)"/><rect class="cls-1" x="50" y="503.55" width="100" height="40" rx="8.94"/></g><g id="speech-bubble"><path class="cls-1" d="M257.65,302.15l-15.48-15.48V236.23a20,20,0,0,0-20-20H110a20,20,0,0,0-20,20v56.16a20,20,0,0,0,20,20H253.41A6,6,0,0,0,257.65,302.15Z"/></g><g id="speech-bubble-2"><path class="cls-1" d="M542.35,262.66l15.48-15.48V166.74a20,20,0,0,1,20-20H690a20,20,0,0,1,20,20V252.9a20,20,0,0,1-20,20H546.59A6,6,0,0,1,542.35,262.66Z"/></g><g id="body"><path class="cls-2" d="M586,740c16,0,29-17.33,29-38.72s-13-38.71-29-38.71H514.07L530.32,672l9.7,24.91-3.53,23L517.4,733.59,514.07,740Z"/><path class="cls-1" d="M556,733.26H193.66c14.92-37.8,0-64,0-64H556l14.52,32Z"/><path class="cls-2" d="M547.1,662.57H190a6.77,6.77,0,0,0-6.77,6.77h0a6.77,6.77,0,0,0,6.77,6.78H547.1c5.26,0,15.49,8.88,15.49,25.16s-10.23,25.17-15.49,25.17H190a6.77,6.77,0,0,0-6.77,6.77h0A6.77,6.77,0,0,0,190,740H547.1c16,0,29-17.33,29-38.72s-13-38.71-29-38.71Z"/><path class="cls-1" d="M589,556.49H209.27c14.92-46.23,0-78.21,0-78.21H589Z"/><path class="cls-3" d="M198.79,475.77a6.77,6.77,0,0,0,6.77,6.77H572.39c5.26,0,15.49,12.3,15.49,34.85s-10.23,34.84-15.49,34.84H205.56a6.77,6.77,0,0,0-6.77,6.78h0a6.77,6.77,0,0,0,6.77,6.77H572.39c16,0,29-21.67,29-48.39s-13-48.4-29-48.4H205.56a6.78,6.78,0,0,0-6.77,6.78Z"/><path class="cls-4" d="M468.87,518.59a20,20,0,0,1,20.89-18.07l32.52,1.54a54.15,54.15,0,0,1,30.58,8.86l12.25,8a10,10,0,0,1-.92,17.19l-8.77,4.49A54.16,54.16,0,0,1,521,545.71l-35.18-5.38a20,20,0,0,1-16.91-21.74Z"/><path class="cls-5" d="M485.53,534.23a14.52,14.52,0,0,0,3.81-28.53l-30.49-8.32a14.52,14.52,0,0,0-7.64,28l30.49,8.31A14.53,14.53,0,0,0,485.53,534.23Z"/><path class="cls-4" d="M336.85,517.71a20,20,0,0,0-20.58-18.42l-32.53,1A54.05,54.05,0,0,0,253,508.63l-12.39,7.83a10,10,0,0,0,.64,17.2l8.69,4.65A54.09,54.09,0,0,0,284.32,544l35.26-4.79a20,20,0,0,0,17.27-21.45Z"/><path class="cls-5" d="M317.73,533.32a14.52,14.52,0,0,1-3.81-28.53l30.49-8.32a14.52,14.52,0,1,1,7.64,28l-30.49,8.32A14.53,14.53,0,0,1,317.73,533.32Z"/><rect class="cls-6" x="339.88" y="434.25" width="117.5" height="39.71"/><polygon class="cls-4" points="260.34 404.17 547.5 403.31 547.06 425.16 260.2 419.75 260.34 404.17"/><path class="cls-6" d="M306.29,396.1l-32.47-24.17a23.38,23.38,0,0,1-4.29-33.37L326,268.09a35,35,0,0,1,17-11.57l36.72-11.43h38.58L454,252.54a35.08,35.08,0,0,1,20.09,12.25l59,72.79A23.6,23.6,0,0,1,530.53,370l-36.84,33.27"/><rect class="cls-7" x="302.28" y="298.04" width="195.61" height="152.14" rx="21.73"/><path class="cls-8" d="M389,366a4.36,4.36,0,0,0-4.07,5.91,16.31,16.31,0,0,0,30.4,0,4.36,4.36,0,0,0-4.07-5.91Z"/><path class="cls-4" d="M348,532.41l209.36-62.62a36,36,0,0,0,4.23-1.57,34,34,0,1,0-27.91-61.9L334.45,496.13Z"/><path class="cls-4" d="M460.1,533.27,250.73,470.66a34,34,0,1,1,19.45-65.06,36.8,36.8,0,0,1,4.23,1.58L473.63,497Z"/><path class="cls-5" d="M379.77,221.16h38.43a0,0,0,0,1,0,0v23.94A19.22,19.22,0,0,1,399,264.31h0a19.22,19.22,0,0,1-19.22-19.22V221.16A0,0,0,0,1,379.77,221.16Z"/><path class="cls-9" d="M409.2,236.26c-3.39.31-6.86.46-10.39.46-3.27,0-6.5-.13-9.66-.4"/><path class="cls-1" d="M208.32,575.07H614.23c-14.92,46.23,0,78.21,0,78.21H208.32Z"/><path class="cls-5" d="M154.32,565.78c-16,0-29,21.67-29,48.39s13,48.4,29,48.4h81.61l-16.25-11.82L210,619.62l3.53-28.79,19.09-17,3.33-8Z"/><path class="cls-5" d="M624.71,655.79a6.77,6.77,0,0,0-6.77-6.77H231.75c-5.25,0-15.48-12.3-15.48-34.85s10.23-34.84,15.48-34.84H617.94a6.77,6.77,0,0,0,6.77-6.77h0a6.77,6.77,0,0,0-6.77-6.78H231.75c-16,0-29,21.67-29,48.39s13,48.4,29,48.4H617.94a6.77,6.77,0,0,0,6.77-6.78Z"/><polygon class="cls-6" points="322.57 696.64 298.37 682.12 274.18 696.64 274.18 619.21 322.57 619.21 322.57 696.64"/><path class="cls-6" d="M322.57,619.21a9.68,9.68,0,0,0-9.68-9.68H264.5a9.68,9.68,0,0,1,9.68,9.68"/></g><g id="head"><path class="cls-4" d="M513,216.07H284.19V165.14C284.19,102,335.41,60,398.58,60h0C461.76,60,513,102,513,165.14Z"/><path class="cls-5" d="M476.51,178.62c0,33.84-34,54.37-75.86,54.37s-75.85-20.53-75.85-54.37c0-19,8.31-42.76,8.31-42.76l48.16-19.73,45.27-4.33L465.25,135S476.51,159.67,476.51,178.62Z"/><path class="cls-4" d="M330,142.14l91.8,2.89V115.49l13,29.54,36.08-4.33s-.13-35.16-3.67-34.2-94.21,0-94.21,0l-35.53,16.88Z"/><circle class="cls-5" cx="484.82" cy="168.6" r="17.97"/><circle class="cls-5" cx="314.21" cy="170.57" r="17.78"/><path class="cls-9" d="M318.43,178.31a6.26,6.26,0,0,1-.13-1.31,6.5,6.5,0,0,1,6.5-6.5,8.79,8.79,0,0,0-17.46,1.42"/><path class="cls-9" d="M481.37,176.19a6.26,6.26,0,0,0,.13-1.31,6.5,6.5,0,0,0-6.5-6.5,8.79,8.79,0,0,1,17.46,1.42"/></g><g id="mouth"><path class="cls-10" d="M409.2,198.39a17.32,17.32,0,0,1-17.09-.86"/></g><g id="eye-left"><circle class="cls-11" cx="357" cy="167.27" r="17.3"/><circle class="cls-4" cx="358.84" cy="168.6" r="9.84"/></g><g id="eye-right"><circle class="cls-11" cx="441.84" cy="167.27" r="17.3"/><circle class="cls-4" cx="440" cy="168.6" r="9.84"/></g></svg>