<svg id="logo" data-name="logo" xmlns="http://www.w3.org/2000/svg" viewBox="0 0 1024 1024">
    <defs>
        <style>
            .cls-1{fill:#fff;}
        </style>
    </defs>
    <title>logo</title>
    <path class="cls-1" d="M466,405.18c-12.43-85.11-71.84-155-151.07-182.42a226.52,226.52,0,0,0-65.67-12.35c-3-.14-6.07-.19-9.13-.19-126.1,0-228.3,102.22-228.3,228.32a228.2,228.2,0,0,0,121.69,201.9,224.71,224.71,0,0,0,63,22.22A228.55,228.55,0,0,0,447.66,533.8a225,225,0,0,0,14.88-43.41,229,229,0,0,0,5.57-39.27q.35-6.24.35-12.58A226.62,226.62,0,0,0,466,405.18ZM240.13,616.74a178.48,178.48,0,0,1-178.2-178.2c0-83.38,57.56-153.58,135-172.92a178.6,178.6,0,0,1,70-3.28c85.59,12.95,151.42,87,151.42,176.2C418.35,536.79,338.41,616.74,240.13,616.74Z"/>
    <path class="cls-1" d="M783.53,210.21c-3.06,0-6.11.06-9.13.19a225.87,225.87,0,0,0-65.65,12.37c-79.52,27.54-139.09,97.79-151.23,183.31a225.35,225.35,0,0,0-2.31,32.45c0,5.28.17,10.52.56,15.71a226.56,226.56,0,0,0,19.69,78.43,228.57,228.57,0,0,0,251.7,130,224.71,224.71,0,0,0,63-22.22,228.2,228.2,0,0,0,121.69-201.9C1011.83,312.44,909.63,210.21,783.53,210.21Zm124.13,356a177.25,177.25,0,0,1-124.13,50.51c-98.27,0-178.22-79.95-178.22-178.2,0-89.16,65.82-163.25,151.42-176.2a178.6,178.6,0,0,1,70,3.28c77.46,19.35,135,89.54,135,172.92A177.54,177.54,0,0,1,907.66,566.23Z"/>
    <path class="cls-1" d="M557.52,406.09A85,85,0,0,0,447.66,533.8a225,225,0,0,0,14.88-43.41,50.27,50.27,0,1,1,98.79-13.16,49.55,49.55,0,0,1-1,9.77,225,225,0,0,0,15.09,45.67,85,85,0,0,0-17.94-126.58Z"/>
    <path class="cls-1" d="M848.91,604.33a346.08,346.08,0,0,1-21.76,58.33,349.95,349.95,0,0,1-630.65,0,346.24,346.24,0,0,1-21.76-58.33A178.26,178.26,0,0,1,116,566.23a395.64,395.64,0,0,0,17.52,74.21c53.61,157.45,202.73,270.7,378.31,270.7s324.71-113.25,378.31-270.7a395.71,395.71,0,0,0,17.52-74.21A178.27,178.27,0,0,1,848.91,604.33Zm-582-342a352.32,352.32,0,0,1,48-39.58,350,350,0,0,1,393.81,0,350.62,350.62,0,0,1,48,39.56,178.6,178.6,0,0,1,70,3.28,402.84,402.84,0,0,0-52.32-55.21,399.59,399.59,0,0,0-525.13,0,402.84,402.84,0,0,0-52.32,55.21,178.6,178.6,0,0,1,70-3.28Z"/>
</svg>