<svg id="Layer_1" data-name="Layer 1" xmlns="http://www.w3.org/2000/svg" viewBox="0 0 7935 1024"><defs><style>.cls-1{font-size:800px;font-family:Roboto-Black, Roboto;letter-spacing:0.1em;}.cls-2{letter-spacing:0.08em;}.cls-3{letter-spacing:0.06em;}.cls-4{letter-spacing:0.09em;}</style></defs><title>logo-brand-v1</title><path d="M783.53,210.21c-3.06,0-6.11.06-9.13.19a399.59,399.59,0,0,0-525.13,0c-3-.14-6.07-.19-9.13-.19-126.1,0-228.3,102.22-228.3,228.32a228.2,228.2,0,0,0,121.69,201.9c53.61,157.45,202.73,270.7,378.31,270.7s324.71-113.25,378.31-270.7a228.2,228.2,0,0,0,121.69-201.9C1011.83,312.44,909.63,210.21,783.53,210.21Zm-271.7-48.08a347,347,0,0,1,196.91,60.64c-79.52,27.54-139.09,97.79-151.23,183.31a85,85,0,0,0-91.51-.91c-12.43-85.11-71.84-155-151.07-182.42A347.1,347.1,0,0,1,511.83,162.14ZM116,566.23a177.53,177.53,0,0,1-54.07-127.7c0-83.38,57.56-153.58,135-172.92a178.6,178.6,0,0,1,70-3.28c85.59,12.95,151.42,87,151.42,176.2,0,98.25-79.95,178.2-178.22,178.2A177.25,177.25,0,0,1,116,566.23ZM758.92,758.7a349.95,349.95,0,0,1-562.41-96A228.55,228.55,0,0,0,447.66,533.8a225,225,0,0,0,14.88-43.41,229,229,0,0,0,5.57-39.27,50.26,50.26,0,0,1,87.66,3.12,226.56,226.56,0,0,0,19.69,78.43,228.57,228.57,0,0,0,251.7,130A350,350,0,0,1,758.92,758.7ZM907.66,566.23a177.25,177.25,0,0,1-124.13,50.51c-98.27,0-178.22-79.95-178.22-178.2,0-89.16,65.82-163.25,151.42-176.2a178.6,178.6,0,0,1,70,3.28c77.46,19.35,135,89.54,135,172.92A177.54,177.54,0,0,1,907.66,566.23Z"/><text class="cls-1" transform="translate(1114.96 812.83)">FUNDER <tspan class="cls-2" x="3803.36" y="0">W</tspan><tspan class="cls-3" x="4579.45" y="0">A</tspan><tspan class="cls-4" x="5135.23" y="0">T</tspan><tspan x="5653.52" y="0">CH</tspan></text></svg>