<svg id="Layer_1" data-name="Layer 1" xmlns="http://www.w3.org/2000/svg" viewBox="0 0 7935 1024"><defs><style>.cls-1{fill:#fff;}.cls-2{fill:none;stroke:#fff;stroke-miterlimit:10;stroke-width:64.15px;}</style></defs><title>logo-brand-v2_2</title><path class="cls-1" d="M350.51,583.92H142.31V812.83h-132V244.08H390.36V345.64h-248V482.36h208.2Z"/><path class="cls-1" d="M1002.78,244.08V612.83q0,97.66-64.84,152.93T768.79,821q-105.08,0-170.31-55.27T533.25,612.83V244.08H665.67V612.83q0,52.73,27.34,79.69t75.78,27q48,0,74.8-26.76t26.76-79.88V244.08Z"/><path class="cls-1" d="M1644.5,812.83H1512.86L1304.65,455l-2.34.78v357h-132V244.08h132l208.2,357.42,2.34-.78V244.08H1644.5Z"/><path class="cls-1" d="M1815.12,812.83V244.08h208.2q100.39,0,168,65.43t67.58,167.77V579.62q0,102.74-67.58,168t-168,65.23Zm132-467.19V711.26h76.17q44.92,0,74-36.72t29.1-94.92V476.5q0-57.42-29.1-94.14t-74-36.72Z"/><path class="cls-1" d="M2750.2,569.47H2549.81v141.8H2790V812.83H2417.78V244.08h372.66V345.64H2549.81V467.91H2750.2Z"/><path class="cls-1" d="M3076.29,594.86v218h-132V244.08h198q98.82,0,156.64,45.7t57.81,125q0,44.15-23.24,75.78T3265,542.12q52.34,14.85,75.2,49.41T3363,677.67v35.94q0,22.27,6.64,50.78t23,40.63v7.81H3256.37q-15.63-12.1-20.31-42.58a378.52,378.52,0,0,1-4.69-57.42V678.45q0-40.62-21.48-62.11T3147,594.86Zm0-101.56h66.8q39.84,0,60.94-18.16T3225.12,423q0-34.76-21.68-56.05t-61.13-21.29h-66Z"/><path class="cls-1" d="M5458.06,612.83h2.34l68.75-368.75h133.59L5532.28,812.83H5408.06l-95.7-351.17H5310l-94.92,351.17H5090.87L4960,244.08h134l68.75,369.14,2.34.39,96.48-369.53h99.61Z"/><path class="cls-1" d="M6074.39,702.28H5905.25l-32.81,110.55H5733.37l185.55-568.75h70.7v.39l.39-.39h70.7l185.94,568.75H6107.59ZM5935.71,600.72h108.2l-53.12-176.56h-2.34Z"/><path class="cls-1" d="M6728.21,345.64H6577.82V812.83h-132V345.64H6298.14V244.08h430.08Z"/><path class="cls-1" d="M7287.51,621l.78,2.34q1.56,97.27-54.88,147.46t-160,50.2q-105.47,0-169.34-64.45t-63.87-168.75V469.08q0-103.9,61.52-168.55t162.7-64.65q108.2,0,167.38,50.39t57.62,146.48l-1.17,2.34H7159.78q0-52.34-22.27-75t-73-22.66q-44.53,0-68.36,35.74t-23.83,95.12V587.83q0,59.77,26.17,95.7t75,35.94q45.31,0,65.43-22.66T7159,621Z"/><path class="cls-1" d="M7915.56,812.83H7783.92V583.92H7573.37V812.83h-132V244.08h132V482.36h210.55V244.08h131.64Z"/><path class="cls-2" d="M4529.05,745.85a230.23,230.23,0,0,0,92.42-19.23c-76.76,148.6-231.82,250.18-410.61,250.18S3877,875.22,3800.24,726.61a230.23,230.23,0,0,0,92.42,19.23c127.55,0,230.95-103.4,230.95-230.95s-103.4-230.95-230.95-230.95a230.23,230.23,0,0,0-92.42,19.23C3877,154.58,4032.06,53,4210.86,53s333.85,101.58,410.61,250.18a230.23,230.23,0,0,0-92.42-19.23c-127.55,0-230.95,103.4-230.95,230.95S4401.5,745.85,4529.05,745.85Z"/><path class="cls-2" d="M4760,514.9c0,94.69-57,176.06-138.53,211.72a230.23,230.23,0,0,1-92.42,19.23c-127.55,0-230.95-103.4-230.95-230.95s103.4-230.95,230.95-230.95a230.23,230.23,0,0,1,92.42,19.23C4703,338.84,4760,420.21,4760,514.9Z"/><path class="cls-2" d="M4123.61,514.9c0,127.55-103.4,230.95-230.95,230.95a230.23,230.23,0,0,1-92.42-19.23c-81.55-35.66-138.53-117-138.53-211.72s57-176.06,138.53-211.72a230.23,230.23,0,0,1,92.42-19.23C4020.21,283.95,4123.61,387.35,4123.61,514.9Z"/><path class="cls-2" d="M4302.63,418.68a128.23,128.23,0,0,0-181.45,0"/></svg>