<svg id="Layer_1" data-name="Layer 1" xmlns="http://www.w3.org/2000/svg" viewBox="0 0 7935 1024">
    <defs>
        <style>
            .cls-1{fill:#fff;}
        </style>
    </defs>
    <title>logo-brand-v2</title>
    <path class="cls-1" d="M4482.53,210.21c-3.06,0-6.11.06-9.13.19a399.59,399.59,0,0,0-525.13,0c-3-.14-6.07-.19-9.13-.19-126.1,0-228.3,102.22-228.3,228.32a228.2,228.2,0,0,0,121.69,201.9c53.61,157.45,202.73,270.7,378.31,270.7s324.71-113.25,378.31-270.7a228.2,228.2,0,0,0,121.69-201.9C4710.83,312.44,4608.63,210.21,4482.53,210.21Zm-271.7-48.08a347,347,0,0,1,196.91,60.64c-79.52,27.54-139.09,97.79-151.23,183.31a85,85,0,0,0-91.51-.91c-12.43-85.11-71.84-155-151.07-182.42A347.1,347.1,0,0,1,4210.83,162.14ZM3815,566.23a177.53,177.53,0,0,1-54.07-127.7c0-83.38,57.56-153.58,135-172.92a178.6,178.6,0,0,1,70-3.28c85.59,12.95,151.42,87,151.42,176.2,0,98.25-79.95,178.2-178.22,178.2A177.25,177.25,0,0,1,3815,566.23ZM4457.92,758.7a349.95,349.95,0,0,1-562.41-96A228.55,228.55,0,0,0,4146.66,533.8a225,225,0,0,0,14.88-43.41,229,229,0,0,0,5.57-39.27,50.26,50.26,0,0,1,87.66,3.12,226.56,226.56,0,0,0,19.69,78.43,228.57,228.57,0,0,0,251.7,130A350,350,0,0,1,4457.92,758.7Zm148.74-192.46a177.25,177.25,0,0,1-124.13,50.51c-98.27,0-178.22-79.95-178.22-178.2,0-89.16,65.82-163.25,151.42-176.2a178.6,178.6,0,0,1,70,3.28c77.46,19.35,135,89.54,135,172.92A177.54,177.54,0,0,1,4606.66,566.23Z"/>
    <path class="cls-1" d="M350.51,583.92H142.31V812.83h-132V244.08H390.36V345.64h-248V482.36h208.2Z"/>
    <path class="cls-1" d="M1002.78,244.08V612.83q0,97.66-64.84,152.93T768.79,821q-105.08,0-170.31-55.27T533.25,612.83V244.08H665.67V612.83q0,52.73,27.34,79.69t75.78,27q48,0,74.8-26.76t26.76-79.88V244.08Z"/>
    <path class="cls-1" d="M1644.5,812.83H1512.86L1304.65,455l-2.34.78v357h-132V244.08h132l208.2,357.42,2.34-.78V244.08H1644.5Z"/>
    <path class="cls-1" d="M1815.12,812.83V244.08h208.2q100.39,0,168,65.43t67.58,167.77V579.62q0,102.74-67.58,168t-168,65.23Zm132-467.19V711.26h76.17q44.92,0,74-36.72t29.1-94.92V476.5q0-57.42-29.1-94.14t-74-36.72Z"/>
    <path class="cls-1" d="M2750.2,569.47H2549.81v141.8H2790V812.83H2417.78V244.08h372.66V345.64H2549.81V467.91H2750.2Z"/>
    <path class="cls-1" d="M3076.29,594.86v218h-132V244.08h198q98.82,0,156.64,45.7t57.81,125q0,44.15-23.24,75.78T3265,542.12q52.34,14.85,75.2,49.41T3363,677.67v35.94q0,22.27,6.64,50.78t23,40.63v7.81H3256.37q-15.63-12.1-20.31-42.58a378.52,378.52,0,0,1-4.69-57.42V678.45q0-40.62-21.48-62.11T3147,594.86Zm0-101.56h66.8q39.84,0,60.94-18.16T3225.12,423q0-34.76-21.68-56.05t-61.13-21.29h-66Z"/>
    <path class="cls-1" d="M5448.06,612.83h2.34l68.75-368.75h133.59L5522.28,812.83H5398.06l-95.7-351.17H5300l-94.92,351.17H5080.87L4950,244.08h134l68.75,369.14,2.34.39,96.48-369.53h99.61Z"/>
    <path class="cls-1" d="M6064.39,702.28H5895.25l-32.81,110.55H5723.37l185.55-568.75h70.7v.39l.39-.39h70.7l185.94,568.75H6097.59ZM5925.71,600.72h108.2l-53.12-176.56h-2.34Z"/>
    <path class="cls-1" d="M6718.21,345.64H6567.82V812.83h-132V345.64H6288.14V244.08h430.08Z"/>
    <path class="cls-1" d="M7277.51,621l.78,2.34q1.56,97.27-54.88,147.46t-160,50.2q-105.47,0-169.34-64.45t-63.87-168.75V469.08q0-103.9,61.52-168.55t162.7-64.65q108.2,0,167.38,50.39t57.62,146.48l-1.17,2.34H7149.78q0-52.34-22.27-75t-73-22.66q-44.53,0-68.36,35.74t-23.83,95.12V587.83q0,59.77,26.17,95.7t75,35.94q45.31,0,65.43-22.66T7149,621Z"/>
    <path class="cls-1" d="M7905.56,812.83H7773.92V583.92H7563.37V812.83h-132V244.08h132V482.36h210.55V244.08h131.64Z"/>
</svg>