<svg id="Layer_3" data-name="Layer 3" xmlns="http://www.w3.org/2000/svg" viewBox="0 0 1024 1024"><defs><style>.cls-1{fill:none;stroke:#fff;stroke-miterlimit:10;stroke-width:50px;}</style></defs><title>logo_2</title><path class="cls-1" d="M760,692a179.44,179.44,0,0,0,72-15C772.2,792.83,651.35,872,512,872S251.8,792.83,192,677a180,180,0,1,0,0-330C251.8,231.17,372.65,152,512,152s260.2,79.17,320,195a180,180,0,1,0-72,345Z"/><path class="cls-1" d="M940,512A179.85,179.85,0,1,1,832,347,180,180,0,0,1,940,512Z"/><path class="cls-1" d="M444,512A180.1,180.1,0,1,1,264,332,180,180,0,0,1,444,512Z"/><path class="cls-1" d="M583.52,437a99.94,99.94,0,0,0-141.42,0"/></svg>